<?xml version="1.0" encoding="UTF-8"?>
<svg version="1.1" xmlns="http://www.w3.org/2000/svg" width="819" height="819">
<path d="M0 0 C0.75334661 -0.00551417 1.50669321 -0.01102833 2.2828685 -0.0167096 C4.80997551 -0.03031654 7.33610091 -0.0154014 9.8631897 -0.00063419 C11.69235415 -0.00452673 13.52151559 -0.0101668 15.35066986 -0.01740509 C20.37984955 -0.03218665 25.40871699 -0.0219621 30.43788671 -0.00766838 C35.86158139 0.00342342 41.28523161 -0.00849583 46.70892334 -0.01751041 C57.33954601 -0.03146159 67.97005007 -0.02387065 78.60066712 -0.00883483 C90.99160559 0.00802265 103.38251447 0.00481485 115.77346087 0.00107109 C138.56905108 -0.00498978 161.36458518 0.01080731 184.16015893 0.03625872 C204.93212034 0.05932828 225.70401133 0.06471343 246.47598267 0.05452633 C269.83173223 0.04309255 293.18744657 0.04122098 316.54319572 0.05562443 C319.03912226 0.05715019 321.5350488 0.05867054 324.03097534 0.06018543 C325.25890293 0.06094325 326.48683051 0.06170106 327.75196803 0.06248184 C336.37390648 0.06720934 344.99582913 0.0653838 353.61776733 0.06112003 C364.14840568 0.05617023 374.67897235 0.06227881 385.20959437 0.08201433 C390.57530189 0.09182498 395.94090076 0.09705981 401.30661392 0.08912182 C455.31802439 0.01797971 500.23502567 8.83118648 539.91641235 48.027915 C569.6127428 78.10435848 584.71799078 117.93132547 584.53652954 160.17146969 C584.16077351 183.07111587 578.79041953 205.09328891 568.3578186 225.50057125 C568.03555298 226.13285641 567.71328735 226.76514156 567.3812561 227.41658688 C563.18091183 235.50139587 558.13925628 242.760164 552.4593811 249.85604 C549.39118103 253.71695348 547.65283075 256.25518338 547.79141235 261.33650875 C548.74345554 264.97397029 551.27856871 266.84744856 554.0062561 269.30525875 C558.26750661 273.28336969 561.73911851 277.94441805 565.3578186 282.50057125 C565.9662561 283.24178219 566.5746936 283.98299313 567.2015686 284.746665 C596.75203254 321.3489442 605.22598972 370.17298694 600.58633423 415.98958492 C594.85993831 463.75041611 570.78384895 510.69315116 532.8578186 540.87557125 C488.57515758 575.27889845 442.83858086 582.99867508 388.03621984 582.89274526 C382.76720768 582.88587799 377.49822381 582.8964729 372.22921753 582.90468502 C361.94648368 582.91793871 351.66381597 582.91518372 341.38107966 582.9064471 C333.02599104 582.89964438 324.67092083 582.89876494 316.31583023 582.90201855 C314.52550861 582.9027081 314.52550861 582.9027081 312.69901887 582.90341157 C310.27383334 582.90437082 307.84864781 582.90534346 305.42346229 582.90632935 C282.75544728 582.91485696 260.08746884 582.90508708 237.41945983 582.88892825 C217.97392711 582.87549632 198.52844805 582.87788187 179.08291626 582.89168453 C156.46257397 582.90773333 133.8422635 582.91406588 111.22191632 582.90484774 C108.81165195 582.90389213 106.40138758 582.90294902 103.9911232 582.90201855 C102.80538724 582.90155572 101.61965128 582.90109289 100.39798393 582.90061604 C92.04479354 582.89802637 83.69162338 582.902396 75.33843613 582.90945721 C65.17198109 582.91786321 55.00559556 582.91560968 44.83914851 582.89961497 C39.65338627 582.89172499 34.46774001 582.88865357 29.28197861 582.89856243 C24.53681056 582.90749271 19.79186621 582.9026041 15.04671849 582.88662978 C13.32931983 582.88327531 11.61190231 582.88499097 9.89451574 582.89225714 C7.5614162 582.9013725 5.22908416 582.89203082 2.8960247 582.87809467 C1.5999211 582.87760762 0.3038175 582.87712056 -1.03156197 582.87661874 C-6.98794839 582.25625866 -11.77559716 580.25944416 -15.6421814 575.50057125 C-16.98882687 571.46063482 -16.78194795 567.56556771 -16.77360916 563.35281467 C-16.7756618 562.40029674 -16.77771443 561.4477788 -16.77982926 560.46639669 C-16.78552658 557.24418376 -16.78403866 554.02201321 -16.78262329 550.7997961 C-16.78520536 548.47850729 -16.78821807 546.15721893 -16.79162669 543.83593118 C-16.79886848 538.10582079 -16.80140022 532.37572157 -16.80195575 526.64560694 C-16.80286847 519.78469219 -16.80953325 512.92378608 -16.81630257 506.06287505 C-16.83237353 489.47978949 -16.83826685 472.89670483 -16.84305132 456.31361288 C-16.84538591 448.47209755 -16.84898838 440.63058295 -16.8527467 432.78906819 C-16.86558243 405.95770761 -16.87630219 379.12634745 -16.8797493 352.29498386 C-16.87997093 350.61023441 -16.88019272 348.92548495 -16.88041465 347.24073549 C-16.88063529 345.55187275 -16.88085577 343.86301 -16.8810761 342.17414725 C-16.88151866 338.78588494 -16.88196577 335.39762262 -16.88241577 332.00936031 C-16.88252516 331.16926633 -16.88263455 330.32917235 -16.88274726 329.46362097 C-16.8863794 302.21208805 -16.90230527 274.96058171 -16.92560614 247.70905897 C-16.95018451 218.91089001 -16.96392118 190.11273624 -16.96511722 161.31455648 C-16.96528868 158.15524157 -16.96550411 154.99592666 -16.96575165 151.83661175 C-16.96580742 151.05867464 -16.96586319 150.28073754 -16.96592064 149.47922658 C-16.96707275 136.94342669 -16.97810819 124.407654 -16.9926387 111.8718633 C-17.00698235 99.27988121 -17.01025276 86.68793411 -17.00219873 74.09594609 C-16.99812665 67.27012587 -16.9988947 60.44438947 -17.01325607 53.61858082 C-17.02591447 47.37629162 -17.02486891 41.13416403 -17.01266536 34.89187531 C-17.01069431 32.62742111 -17.01385101 30.36295576 -17.02250972 28.09851725 C-17.03349728 25.03214886 -17.02618921 21.9663615 -17.01411819 18.90001011 C-17.02171339 18.01075624 -17.02930858 17.12150236 -17.03713393 16.2053014 C-16.99686503 11.50130137 -16.82805853 8.2211363 -13.6421814 4.50057125 C-9.20707517 0.76701525 -5.64678885 -0.07858024 0 0 Z M47.3578186 65.50057125 C44.91279544 69.06562941 45.07487191 72.70920409 45.09775639 76.8788805 C45.09395071 77.62795947 45.09014504 78.37703843 45.08622405 79.14881676 C45.07587144 81.67302842 45.07982116 84.19701674 45.08366394 86.72124386 C45.07921354 88.54358393 45.07390015 90.36592206 45.06779522 92.18825734 C45.05358128 97.20714672 45.05195257 102.22597428 45.05239213 107.24488091 C45.05074693 112.65330528 45.03768608 118.06170395 45.02619934 123.47011471 C45.00332824 135.30048156 44.99542665 147.13083049 44.9903729 158.96121645 C44.98711871 166.34444573 44.98059797 173.72766978 44.97337151 181.11089611 C44.95380381 201.54298072 44.93740027 221.97506046 44.93449497 242.40715504 C44.9343074 243.71518935 44.93411983 245.02322367 44.93392658 246.37089539 C44.93356032 249.02272328 44.93319662 251.67455116 44.93283547 254.32637905 C44.93265266 255.64279314 44.93246984 256.95920723 44.93228149 258.31551266 C44.93210095 259.63352852 44.9319204 260.95154438 44.93173438 262.30950011 C44.92819099 283.67710984 44.90115906 305.04461104 44.86378361 326.41218685 C44.82573975 348.33684846 44.80633779 370.26146007 44.80603546 392.18615544 C44.80545005 404.50143863 44.79690412 416.8166017 44.7680378 429.13185406 C44.74357649 439.61617158 44.73620554 450.10032518 44.75128532 460.5846635 C44.75847541 465.93630876 44.7575065 471.28762997 44.73487473 476.63923931 C44.71436518 481.53580654 44.71680971 486.43179893 44.73774957 491.32835938 C44.74125986 493.10222873 44.73626976 494.87613888 44.72204513 496.64995466 C44.70397848 499.05753165 44.71660409 501.46306585 44.73699284 503.87057972 C44.72442946 504.56279493 44.71186609 505.25501015 44.69892201 505.96820158 C44.79918868 511.48149293 46.60862484 513.75220796 50.3578186 517.50057125 C53.10505574 518.87418982 55.29665245 518.62988557 58.37332726 518.63479233 C59.66428192 518.63925017 60.95523659 518.64370802 62.2853111 518.64830095 C63.73162994 518.64821164 65.17794877 518.64802176 66.62426758 518.64774227 C68.15029133 518.65103991 69.6763142 518.65476526 71.20233595 518.65888375 C75.41199332 518.66892486 79.62163643 518.67262399 83.83130407 518.67527306 C88.36612399 518.67917034 92.90093255 518.68874964 97.43574524 518.69748592 C108.40136651 518.71727544 119.36698874 518.72732354 130.33262342 518.73621371 C135.49931329 518.74059597 140.66600213 518.74596326 145.83269119 518.75120258 C163.01689885 518.76822378 180.20110587 518.7827141 197.38532066 518.78995132 C201.84783301 518.79186119 206.31034534 518.79378152 210.77285767 518.79573727 C212.43654081 518.79646288 212.43654081 518.79646288 214.13383372 518.79720315 C232.06807152 518.80548879 250.0022423 518.83079687 267.93645088 518.86331794 C286.36033429 518.89645342 304.78418375 518.91440628 323.2080971 518.91759557 C333.54752986 518.91975558 343.88686513 518.92842855 354.22626877 518.95405674 C363.04026145 518.97585319 371.854133 518.98377076 380.66814958 518.97408996 C385.15872677 518.96956988 389.64905456 518.97129606 394.13959694 518.9908514 C420.00659551 519.20391228 420.00659551 519.20391228 445.3578186 514.50057125 C446.14825585 514.27662862 446.9386931 514.052686 447.75308299 513.82195723 C481.1232894 504.22491264 507.96341011 481.50619469 524.95913696 451.36922359 C533.89931614 434.8797709 539.40738218 416.27889081 540.3578186 397.50057125 C540.43709595 396.02330563 540.43709595 396.02330563 540.51797485 394.51619625 C541.23619238 367.9109208 533.89852942 341.14271044 515.3578186 321.50057125 C508.46910169 314.68989325 508.46910169 314.68989325 500.3578186 309.50057125 C499.3678186 309.83057125 498.3778186 310.16057125 497.3578186 310.50057125 C497.26806763 311.13744869 497.17831665 311.77432613 497.08584595 312.43050289 C491.61947096 350.49430833 480.35818578 384.97158266 456.3578186 415.50057125 C455.65527954 416.42611813 454.95274048 417.351665 454.22891235 418.30525875 C422.86472591 458.41808923 375.36304345 482.98027018 325.3578186 489.50057125 C324.40004517 489.63334469 323.44227173 489.76611813 322.45547485 489.902915 C276.61198699 495.18976273 226.47474531 481.89885977 189.3578186 454.50057125 C188.82704712 454.10966305 188.29627563 453.71875484 187.74942017 453.31600094 C174.16668149 443.22082786 161.63955452 431.98700408 151.3578186 418.50057125 C150.54957642 417.49639156 149.74133423 416.49221188 148.90859985 415.4576025 C130.62642129 392.62683196 117.99103029 364.91174504 112.1703186 336.31307125 C112.00322388 335.49363033 111.83612915 334.67418941 111.66397095 333.82991695 C102.34655751 285.98101676 112.20023673 233.57431168 139.2796936 193.07869625 C144.78876947 185.02480545 150.64999416 177.59990295 157.3578186 170.50057125 C158.50845887 169.15048667 159.6544882 167.79645536 160.7953186 166.43807125 C173.32540997 152.17479264 189.75359857 140.56611868 206.3578186 131.50057125 C206.97415161 131.16219234 207.59048462 130.82381344 208.22549438 130.47518063 C227.20796497 120.19526127 247.22993774 113.7298704 268.3578186 109.50057125 C269.08791138 109.35361813 269.81800415 109.206665 270.57022095 109.05525875 C317.86418884 100.17509299 369.73646978 112.57363142 409.6703186 138.43807125 C437.3830515 157.69803464 458.62425241 181.38965365 474.8109436 210.965415 C475.21619263 211.70155025 475.62144165 212.43768551 476.03897095 213.19612789 C476.81957546 214.62117012 477.59114719 216.05120737 478.35244751 217.48665524 C480.41732821 221.52231826 480.41732821 221.52231826 484.3578186 223.50057125 C501.88053024 213.67636243 514.51500133 195.2254838 520.35391235 176.26619625 C521.11065419 173.35509369 521.76971074 170.4498883 522.3578186 167.50057125 C522.5846936 166.38682125 522.8115686 165.27307125 523.0453186 164.12557125 C525.18286354 139.33004995 518.71064475 114.53664259 502.6859436 95.1763525 C485.97639222 75.9264977 463.54056996 64.76727897 438.3578186 61.50057125 C432.86680278 61.11870869 427.40256111 61.08896383 421.90272522 61.1128912 C420.30997805 61.10870659 418.71723387 61.10322297 417.12449509 61.09657139 C412.79589385 61.08224747 408.46748512 61.08631998 404.13887393 61.0937382 C399.45252488 61.0984998 394.76621571 61.0859343 390.07987976 61.07572079 C380.92088165 61.05859035 371.76195231 61.05768014 362.60294234 61.06293369 C355.16010841 61.06698452 347.71729472 61.06552104 340.27446175 61.06018543 C339.21291193 61.05943701 338.15136211 61.05868859 337.05764412 61.05791749 C334.90086078 61.05638595 332.74407744 61.0548476 330.58729411 61.05330252 C310.40011721 61.03960034 290.21297916 61.0450009 270.02580316 61.05648773 C251.55664477 61.06643536 233.08758634 61.05344899 214.61844336 61.02955354 C195.63707432 61.00518072 176.65575187 60.9955491 157.67436749 61.00220627 C147.0242551 61.00570026 136.37421974 61.00345356 125.72411919 60.98595524 C116.66634054 60.97125678 107.60869327 60.97056785 98.55091726 60.98802615 C93.93022352 60.99655463 89.30976476 60.99864024 84.6890831 60.9833746 C80.45975095 60.96957441 76.23085616 60.97423004 72.00154961 60.99361383 C70.4716321 60.99738826 68.94167993 60.99441044 67.41179316 60.98400218 C56.64958958 60.72048631 56.64958958 60.72048631 47.3578186 65.50057125 Z M286.4203186 150.25057125 C275.23362417 162.4542379 267.82441991 178.14311974 261.9203186 193.43807125 C261.59023804 194.28949703 261.26015747 195.14092281 260.92007446 196.01814938 C258.72034235 201.933202 257.64011364 207.08909605 256.3578186 213.50057125 C286.3878186 213.50057125 316.4178186 213.50057125 347.3578186 213.50057125 C342.2243653 190.40003138 330.87030048 159.32415968 310.2328186 145.50057125 C301.04771556 140.35405437 293.70207328 143.42392624 286.4203186 150.25057125 Z M227.97769165 157.71126461 C226.95929199 158.2566589 226.95929199 158.2566589 225.9203186 158.81307125 C225.21238159 159.18117916 224.50444458 159.54928707 223.77505493 159.92854977 C204.8603821 169.99839972 179.52373686 187.93839417 169.3578186 207.50057125 C169.58444875 210.83017231 169.58444875 210.83017231 171.3578186 213.50057125 C172.8926483 213.59376574 174.43173943 213.61802925 175.96939087 213.61409664 C177.44080284 213.61398335 177.44080284 213.61398335 178.94194031 213.61386776 C180.00859421 213.60870647 181.07524811 213.60354519 182.17422485 213.5982275 C183.80351173 213.59610508 183.80351173 213.59610508 185.4657135 213.59393978 C188.95060935 213.58832173 192.43544202 213.57576618 195.9203186 213.56307125 C198.27643747 213.55805858 200.63255734 213.55349527 202.98867798 213.54939938 C208.77841325 213.53834644 214.56811141 213.52159076 220.3578186 213.50057125 C220.55655075 212.76384686 220.7552829 212.02712246 220.96003723 211.26807308 C225.15274633 195.74855431 229.5217342 180.38651569 236.04922485 165.6607275 C237.31010242 162.61580227 237.65263446 160.74354568 237.3578186 157.50057125 C233.86698759 154.75587205 231.72283887 155.84033505 227.97769165 157.71126461 Z M367.3578186 156.50057125 C365.90675084 159.34182059 365.20492386 160.85546823 365.95352173 164.01399899 C366.3447522 164.89515377 366.73598267 165.77630856 367.1390686 166.684165 C367.56647339 167.68415524 367.99387817 168.68414547 368.43423462 169.71443844 C368.90401733 170.77823727 369.37380005 171.84203609 369.8578186 172.93807125 C375.42579226 186.1217644 379.57507699 199.46149157 382.3578186 213.50057125 C389.60268411 213.52583864 396.84753834 213.54340305 404.09243774 213.55550289 C406.55923894 213.56054481 409.02603713 213.56737816 411.49282837 213.5760107 C415.02986389 213.5880825 418.56686006 213.59380081 422.10391235 213.5982275 C423.21431381 213.60338879 424.32471527 213.60855007 425.46876526 213.61386776 C426.48974808 213.61394329 427.5107309 213.61401882 428.56265259 213.61409664 C429.91833595 213.61742756 429.91833595 213.61742756 431.30140686 213.62082577 C433.35035441 213.72957587 433.35035441 213.72957587 434.3578186 212.50057125 C434.15919365 206.51239674 432.17755822 203.44900797 428.0453186 199.37557125 C424.62837725 195.87264065 421.40980737 192.330014 418.3578186 188.50057125 C409.15060979 179.38063456 398.25453643 171.55827675 387.4203186 164.50057125 C386.72301636 164.04392086 386.02571411 163.58727047 385.30728149 163.11678219 C376.97233955 157.72746462 376.97233955 157.72746462 367.3578186 156.50057125 Z M148.3578186 253.50057125 C138.37044004 271.84103008 140.98027669 301.64778199 143.6703186 321.43807125 C143.78794556 322.30601315 143.90557251 323.17395504 144.02676392 324.0681982 C145.33989119 334.61907809 145.33989119 334.61907809 150.3578186 343.50057125 C153.15085813 343.79414404 153.15085813 343.79414404 156.45986938 343.72762203 C157.74104645 343.72747097 159.02222351 343.72731991 160.34222412 343.72716427 C161.74586135 343.7169502 163.149497 343.7065182 164.5531311 343.69588375 C165.98516645 343.69215417 167.41720435 343.68930694 168.84924316 343.68730831 C172.62060578 343.67966752 176.39181464 343.66001533 180.16311646 343.63790035 C184.0105481 343.61745144 187.85800455 343.60830865 191.70547485 343.5982275 C199.25632624 343.57676975 206.80705089 343.54262857 214.3578186 343.50057125 C214.21357653 340.93797272 214.06772181 338.37548875 213.9203186 335.81307125 C213.87579056 335.03386318 213.83126251 334.25465511 213.78538513 333.45183468 C213.52574747 329.01474802 213.2026894 324.59204857 212.80703735 320.16463375 C212.18315821 312.27360448 212.17177107 304.38493232 212.17251587 296.47371578 C212.17033966 293.90046527 212.15214048 291.32765215 212.13320923 288.7544775 C212.09991985 278.53915156 212.6944945 268.56994702 213.9269104 258.42879391 C214.26089501 255.38414102 214.39423553 252.54907003 214.3578186 249.50057125 C206.49085366 249.40778543 198.62401751 249.33676312 190.75664234 249.29332256 C187.10324045 249.27247032 183.45021363 249.24419717 179.79702759 249.19881344 C176.26975011 249.15526939 172.7428328 249.13141636 169.21530724 249.12106228 C167.21832261 249.11010251 165.22148237 249.07888977 163.22471619 249.04738522 C162.00382797 249.04708309 160.78293976 249.04678097 159.52505493 249.04646969 C158.45249954 249.03758724 157.37994415 249.0287048 156.27488708 249.01955318 C152.64133708 249.61871745 150.98686951 250.97609104 148.3578186 253.50057125 Z M249.3578186 251.50057125 C248.97178197 253.89822065 248.64530174 256.27815401 248.3578186 258.68807125 C248.2753186 259.32937984 248.1928186 259.97068844 248.1078186 260.63143063 C246.62614398 272.7047637 246.16363084 284.78194498 246.1703186 296.93807125 C246.16992584 297.62601772 246.16953308 298.3139642 246.16912842 299.02275753 C246.17927029 313.9725181 247.24366357 328.70148599 249.3578186 343.50057125 C284.0078186 343.50057125 318.6578186 343.50057125 354.3578186 343.50057125 C355.97022882 334.17222888 355.97022882 334.17222888 356.9906311 324.871665 C357.07474243 323.74486324 357.15885376 322.61806149 357.24551392 321.45711422 C357.36297974 319.71518795 357.36297974 319.71518795 357.4828186 317.93807125 C357.6080188 316.09173092 357.6080188 316.09173092 357.73574829 314.20809078 C359.06595512 293.44329077 359.00330589 272.05308227 355.3578186 251.50057125 C353.82356054 249.96631319 352.4346824 250.37464202 350.29605103 250.37358761 C349.4210495 250.37076778 348.54604797 250.36794796 347.64453125 250.36504269 C346.67722076 250.36706692 345.70991028 250.36909115 344.71328735 250.37117672 C343.70037628 250.3694244 342.68746521 250.36767208 341.64385986 250.36586666 C338.27766229 250.36144603 334.91151676 250.36438688 331.5453186 250.36775875 C329.21743764 250.36708577 326.88955675 250.3661158 324.56167603 250.36485958 C319.67568291 250.36338232 314.78970804 250.36553807 309.90371704 250.37020016 C303.62509204 250.37589745 297.34650978 250.3726186 291.06788635 250.36662769 C286.25881627 250.36302284 281.44975641 250.36416032 276.64068604 250.36675549 C274.32491043 250.36742496 272.00913391 250.36659561 269.69335938 250.36427593 C266.46299769 250.36175065 263.23270627 250.36558826 260.00234985 250.37117672 C258.55138412 250.36814037 258.55138412 250.36814037 257.07110596 250.36504269 C256.19610443 250.36786251 255.32110291 250.37068233 254.41958618 250.37358761 C253.65487503 250.37396463 252.89016388 250.37434166 252.10227966 250.37473011 C250.32884817 250.31140923 250.32884817 250.31140923 249.3578186 251.50057125 Z M442.28237915 249.47884274 C441.08151169 249.49893902 439.88064423 249.5190353 438.64338684 249.53974056 C437.35676651 249.56677563 436.07014618 249.59381069 434.74453735 249.621665 C433.40647724 249.64598824 432.0684083 249.66983067 430.73033142 249.69321346 C427.22037659 249.75583531 423.71057928 249.82496304 420.20077515 249.89546871 C416.61452362 249.96635087 413.02816105 250.03104856 409.44180298 250.09627438 C402.41368759 250.22500407 395.38572003 250.36061053 388.3578186 250.50057125 C388.45658295 251.39313122 388.55534729 252.28569118 388.65710449 253.20529842 C392.02398484 283.81448248 391.37243284 312.8519932 388.3578186 343.50057125 C410.1378186 343.50057125 431.9178186 343.50057125 454.3578186 343.50057125 C456.91311857 337.69494346 456.91311857 337.69494346 458.4906311 331.8638525 C458.6565979 331.04570065 458.8225647 330.22754879 458.99356079 329.38460445 C459.23574341 328.11169552 459.23574341 328.11169552 459.4828186 326.81307125 C459.65458618 325.92385983 459.82635376 325.0346484 460.00332642 324.11849117 C461.22998843 317.58085903 462.15032863 311.15754126 462.3578186 304.50057125 C462.43516235 302.67139156 462.43516235 302.67139156 462.5140686 300.80525875 C462.75998079 292.29813767 462.11422177 284.00346248 461.0453186 275.56307125 C460.86887817 274.14320919 460.86887817 274.14320919 460.68887329 272.69466305 C459.2312396 260.69058924 459.2312396 260.69058924 453.3578186 250.50057125 C449.62572774 249.47892116 446.13533947 249.40583928 442.28237915 249.47884274 Z M214.7562561 380.44710445 C213.32467163 380.4675658 213.32467163 380.4675658 211.86416626 380.48844051 C210.31414917 380.51958195 210.31414917 380.51958195 208.7328186 380.5513525 C207.14606323 380.57965397 207.14606323 380.57965397 205.5272522 380.60852718 C203.28777868 380.65045124 201.04835643 380.69519277 198.80899048 380.74251461 C195.37224579 380.8127763 191.93548605 380.86706632 188.4984436 380.92049313 C186.32654917 380.96313446 184.15467308 381.00672238 181.9828186 381.0513525 C180.94947388 381.06604076 179.91612915 381.08072903 178.85147095 381.09586239 C177.8970813 381.11895977 176.94269165 381.14205715 175.9593811 381.16585445 C174.69601929 381.19036427 174.69601929 381.19036427 173.40713501 381.21536922 C171.1347558 381.32170819 171.1347558 381.32170819 169.3578186 383.50057125 C170.16218337 395.48560624 188.01443986 408.89342837 196.3578186 416.50057125 C206.61890725 425.26614735 219.46742172 434.24924106 232.3578186 438.50057125 C235.0914618 438.20537357 235.0914618 438.20537357 237.3578186 437.50057125 C239.09427381 431.59662355 237.27284306 428.1010358 234.7953186 422.81307125 C229.16207038 410.14784732 224.92757314 397.1118711 221.9984436 383.55525875 C221.78703735 382.87721188 221.5756311 382.199165 221.3578186 381.50057125 C218.93332473 380.28832431 217.46221526 380.40227584 214.7562561 380.44710445 Z M256.3578186 381.50057125 C260.21688664 395.07537509 260.21688664 395.07537509 265.1703186 408.12557125 C265.67788696 409.3020422 265.67788696 409.3020422 266.19570923 410.50228024 C277.0003177 435.14369414 277.0003177 435.14369414 297.3578186 451.50057125 C305.15964151 452.12975052 309.51859086 450.15607871 315.6078186 445.25057125 C331.97330644 430.12073266 341.22096503 405.66029245 346.3578186 384.50057125 C346.3578186 383.51057125 346.3578186 382.52057125 346.3578186 381.50057125 C316.6578186 381.50057125 286.9578186 381.50057125 256.3578186 381.50057125 Z M416.83047485 380.52400875 C415.84155746 380.54903469 414.85264008 380.57406063 413.83375549 380.59984493 C410.69557038 380.68158506 407.55805849 380.77835161 404.4203186 380.87557125 C402.28427781 380.93385782 400.14820992 380.99116004 398.01211548 381.04744625 C392.79364885 381.18709481 387.57565194 381.33906107 382.3578186 381.50057125 C382.19813599 382.15203121 382.03845337 382.80349117 381.87393188 383.47469234 C378.30931788 397.8156973 374.17479816 411.55108723 368.29580688 425.13289547 C367.87025513 426.15786129 367.44470337 427.18282711 367.0062561 428.2388525 C366.42110229 429.585238 366.42110229 429.585238 365.8241272 430.9588232 C365.07222938 433.63159769 365.07222938 433.63159769 366.75479126 436.32942867 C367.54828979 437.40414425 367.54828979 437.40414425 368.3578186 438.50057125 C374.12034466 438.02346689 378.08694558 436.41208223 383.0453186 433.50057125 C384.09405151 432.89499386 384.09405151 432.89499386 385.16397095 432.27718258 C401.86502508 422.44483319 417.6920924 409.04261135 429.7953186 393.87557125 C430.24552368 393.3245776 430.69572876 392.77358395 431.15957642 392.20589352 C433.17017121 389.61531946 434.31817408 387.90353335 434.64297485 384.60213375 C434.54887329 383.90861813 434.45477173 383.2151025 434.3578186 382.50057125 C428.3792006 380.39385438 423.12861339 380.31015199 416.83047485 380.52400875 Z " fill="#010101" transform="translate(110.64218139648438,113.49942874908447)"/>
</svg>
